<svg width="32" height="32" viewBox="0 0 32 32" fill="none" xmlns="http://www.w3.org/2000/svg">
<path fill-rule="evenodd" clip-rule="evenodd" d="M13.7656 26.8079C14.4563 27.5773 15.343 27.9999 16.263 27.9999H16.2643C17.1883 27.9999 18.079 27.5772 18.771 26.8066C19.1416 26.3972 19.7736 26.3639 20.183 26.7332C20.5936 27.1026 20.627 27.7359 20.2576 28.1452C19.1803 29.3412 17.763 29.9999 16.2643 29.9999H16.2616C14.767 29.9986 13.3523 29.3399 12.279 28.1439C11.9096 27.7346 11.943 27.1012 12.3536 26.7332C12.7643 26.3626 13.3963 26.3959 13.7656 26.8079ZM16.3294 1.33325C22.256 1.33325 26.2374 5.94925 26.2374 10.2599C26.2374 12.4773 26.8014 13.4173 27.4 14.4146C27.992 15.3986 28.6627 16.5159 28.6627 18.6279C28.1974 24.0239 22.564 24.4639 16.3294 24.4639C10.0947 24.4639 4.46004 24.0239 4.00002 18.7133C3.99604 16.5159 4.6667 15.3986 5.2587 14.4146L5.46769 14.0628C5.98227 13.1784 6.42137 12.2164 6.42137 10.2599C6.42137 5.94925 10.4027 1.33325 16.3294 1.33325ZM16.3294 3.33325C11.6694 3.33325 8.42137 6.98392 8.42137 10.2599C8.42137 13.0319 7.65204 14.3133 6.97204 15.4439C6.4267 16.3519 5.99604 17.0693 5.99604 18.6279C6.2187 21.1426 7.8787 22.4639 16.3294 22.4639C24.7334 22.4639 26.4454 21.0839 26.6667 18.5413C26.6627 17.0693 26.232 16.3519 25.6867 15.4439C25.0067 14.3133 24.2374 13.0319 24.2374 10.2599C24.2374 6.98392 20.9894 3.33325 16.3294 3.33325Z" fill="#3754DB"/>
</svg>
