<svg width="1440" height="438" viewBox="0 0 1440 338" fill="none" xmlns="http://www.w3.org/2000/svg">
<path d="M871.875 1C871.875 1.5 872.437 2 873.112 2C873.675 2 873.9 1.5 873.562 1C873.225 0.4 872.662 0 872.325 0C872.1 0 871.875 0.4 871.875 1Z" fill="url(#paint0_linear_2_9368)"/>
<path d="M265.5 156.7C264.6 157 262.575 158.2 261 159.4C258.188 161.5 258.187 161.6 258.525 176.7C258.637 185.1 258.975 192 259.312 192C259.537 192 261.112 191.5 262.8 191C265.387 190.1 265.612 190.2 264.487 191.4C263.812 192.1 261.675 193 259.875 193.2C257.4 193.5 256.5 193.2 255.825 191.6C255.375 190.4 254.587 201.6 254.025 216.5C253.462 231.3 252.787 244.1 252.562 244.7C251.775 246.7 246.938 246.2 244.688 244C243.113 242.4 241.2 242 236.362 242C230.512 242 229.837 242.3 227.587 245.3C226.125 247 225 247.9 225 247.2C225 246.6 224.55 246 223.987 246C223.537 246 222.75 256.2 222.3 268.7C220.5 324.9 219.15 351.6 218.137 352.5C217.35 353.2 216.45 352.8 215.325 351.5C213.637 349.5 213.638 349.5 211.5 352C210.263 353.4 209.25 355.6 209.25 356.9C209.25 359.7 207.45 358.7 206.775 355.5C206.55 354.3 204.75 353 201.938 352.1C199.463 351.3 196.987 350 196.537 349.3C195.412 347.7 188.662 348.5 184.837 350.6C181.462 352.5 178.425 352.4 179.325 350.5C179.662 349.7 179.437 349 178.762 349C178.087 349 177.975 348.5 178.425 347.9C179.437 346.5 172.575 341 169.762 341C168.412 341 167.625 340.3 167.625 339C167.625 336.1 165.375 336.6 161.887 340.2L158.738 343.5L158.625 338.2C158.625 333.1 158.737 332.9 161.212 333.5L163.688 334.1L161.212 332.2C158.962 330.4 158.85 329.4 158.738 313.9C158.625 304.9 158.175 297.2 157.725 296.9C157.275 296.5 151.65 295.7 145.125 295.1C131.4 293.8 129.037 292.4 126.675 284.4C125.212 279.8 125.1 279.7 124.312 282.2C123.188 285.9 121.612 285.7 120.712 282C120.15 279.4 119.7 279.1 117.675 279.6C113.85 280.7 110.25 283.1 110.25 284.6C110.25 285.4 109.687 286 109.012 286C108.337 286 108 286.6 108.337 287.3C108.675 288 107.887 289.2 106.762 289.9C103.95 291.4 102.487 294.9 101.812 301.2C101.138 308.6 100.125 308.3 100.125 300.7C100.125 296.9 99.675 294 99 294C98.325 294 97.875 298.1 97.875 304.2C97.875 313 97.5375 314.7 95.625 316.5C93.9375 318.1 93.375 320.1 93.2625 325.8C93.15 331.9 92.7 333.3 90.7875 334.5C88.875 335.7 88.7625 336.2 90 337.5C92.8125 340.5 90.225 340 86.7375 336.8C84.0375 334.4 83.25 334 83.25 335.4C83.25 336.3 82.575 337 81.675 336.8C78.075 336.2 79.5375 338.4 83.25 339.4C86.625 340.2 86.85 340.4 84.6 340.8C80.8875 341.3 81.5625 342.7 86.2875 344.1C88.65 344.7 90.9 345.8 91.35 346.3C92.475 348 91.125 349.1 88.875 348.5C87.75 348.2 86.5125 348.4 86.0625 349C85.5 349.8 84.825 349.6 83.925 348.5C82.4625 346.6 72 345.5 72 347.1C72 347.6 70.875 348.5 69.525 349L66.9375 349.9L69.4125 350.6C70.875 350.9 72 351.7 72 352.4C72 353 72.3375 354.5 72.675 355.7C73.2375 357.5 72.9 358 71.325 358C67.725 358 65.7 356.4 67.275 354.8C68.2875 353.6 67.6125 353.4 63.225 353.4L57.9375 353.5L57.825 348.7C57.6 343 57.15 342.5 54.225 344.1C52.0875 345.3 52.0875 345.3 54.1125 347.1C56.475 349.2 56.925 352 55.0125 352C54.3375 352 54.1125 352.7 54.45 353.6C54.9 354.8 54.675 355.1 53.4375 354.6C51.6375 354 50.625 356.7 50.9625 361C51.1875 363.5 51.075 363.5 41.85 363.5C32.9625 363.5 30.0375 362.9 32.625 361.5C34.65 360.4 33.75 359 30.9375 359C28.575 359 28.125 359.5 28.125 362C28.125 364.5 27.675 365 25.425 365C23.85 365 22.275 365.5 21.825 366.2C21.2625 366.9 20.475 365.9 19.575 363.4C18.9 361.3 18.225 360.3 18.1125 361.4C18 363 17.4375 362.8 14.4 360.1C11.25 357.4 10.575 357.1 9.5625 358.4C8.4375 359.6 8.1 359.6 6.975 357.9C4.8375 354.9 1.575 355.5 0.675 359.1C0.3375 360.8 0 450.2 0 557.6V753H720H1440V502.7C1440 365.1 1439.55 251.9 1439.1 251.2C1438.31 250.2 1437.41 250.2 1434.26 251.4C1427.29 253.9 1407.37 255.1 1367.66 255.3C1330.87 255.5 1328.4 255.4 1327.39 253.7C1326.71 252.7 1324.91 251.5 1323.45 251C1321.09 250.2 1320.75 249.4 1320.75 245.1V240.2L1315.12 239C1310.4 238 1309.39 237.4 1308.82 235.1C1308.49 233.7 1307.59 231.4 1306.91 230.2C1305.9 228.2 1306.01 227.7 1307.59 226.8C1309.5 225.9 1309.5 225.7 1307.59 222.9C1306.58 221.3 1304.78 220 1303.65 220C1300.84 220 1301.06 216.9 1303.88 216.3C1305.11 216 1306.12 215.4 1306.12 215C1306.12 214.6 1305.11 214 1303.88 213.7C1301.29 213.1 1300.84 210 1303.31 210C1304.21 210 1305 209.3 1305 208.5C1305 207.7 1304.21 207 1303.31 207C1301.96 207 1301.62 205.6 1301.62 200.2C1301.62 190.1 1299.82 189.2 1298.81 198.9C1298.36 203.3 1297.8 207 1297.46 207C1297.13 207 1294.87 206.5 1292.51 205.9C1289.14 204.9 1287.79 205 1286.44 206C1284.3 207.6 1284.53 213.4 1286.78 213.6C1287.45 213.7 1288.91 213.8 1289.81 213.9C1290.71 213.9 1291.5 214.7 1291.5 215.5C1291.5 216.5 1290.37 217 1288.01 217C1284.19 217 1283.85 219.4 1287.67 219.6C1292.85 219.8 1293.75 220.1 1293.75 221.6C1293.75 222.9 1292.85 223.1 1289.81 222.8C1286.78 222.5 1285.88 222.8 1285.88 224C1285.88 225.1 1286.78 225.6 1288.46 225.6C1289.93 225.5 1290.94 226.1 1290.94 227C1290.94 227.9 1289.81 228.5 1288.12 228.5C1285.54 228.5 1285.31 229 1284.97 233.2C1284.64 237.1 1284.3 237.9 1282.16 238.2C1280.59 238.4 1279.57 239.3 1279.35 240.8C1279.12 242 1278 243.5 1276.88 244C1275.64 244.6 1274.29 246.5 1273.72 248.3C1273.05 250.8 1272.15 251.6 1269.67 251.8C1267.99 252 1266.3 252.8 1266.07 253.5C1265.74 254.2 1263.49 255.2 1261.01 255.5C1255.39 256.4 1254.15 258.8 1255.72 265.5C1257.41 272.6 1256.51 328.2 1254.6 330.2C1253.59 331.4 1253.48 332.5 1254.38 334.4C1255.05 336.2 1255.16 337.8 1254.38 338.9C1253.7 340.1 1253.81 341.1 1254.6 341.8C1255.72 342.8 1255.5 346.8 1253.81 353.5C1253.48 355.1 1252.91 357.5 1252.57 358.7C1252.35 360 1251.34 361 1250.44 361C1248.08 361 1248.3 363 1250.78 363C1251.9 363.1 1251 363.9 1248.53 365C1245.15 366.6 1243.8 366.8 1240.99 365.9C1237.05 364.7 1236.49 363.4 1236.15 354.5C1235.81 348.8 1235.7 348.5 1232.78 348.2C1230.3 347.9 1229.62 347.3 1229.62 345.4C1229.62 341.5 1225.46 340.8 1202.62 340.6C1191.15 340.4 1180.46 340 1178.66 339.6C1176.75 339.1 1175.06 339.2 1173.94 340C1173.04 340.7 1170.79 341 1168.88 340.8C1165.73 340.4 1165.5 340.6 1164.82 344.8C1164.26 348 1163.47 349.4 1161.56 350C1158.86 350.9 1157.62 354.4 1157.62 361.6C1157.62 369.2 1155.04 372.3 1149.53 371.2C1148.4 371 1147.5 370.2 1147.5 369.3C1147.5 368.5 1146.83 368.1 1146.15 368.4C1145.36 368.6 1142.66 369.4 1140.19 370.1C1137.71 370.8 1134.79 372 1133.66 372.8C1131.41 374.6 1121.63 375.3 1121.96 373.7C1122.08 373.1 1121.29 372.6 1120.16 372.5C1119.04 372.5 1117.69 371.8 1117.12 371C1116.23 369.8 1116 369.8 1115.89 371.5C1115.1 379.3 1113.97 356.6 1113.86 332.8L1113.75 304.2L1109.14 295.4C1104.86 287.1 1104.53 285.8 1103.96 274.8C1103.63 268.3 1102.95 263.3 1102.5 263.5C1102.05 263.7 1101.15 268.5 1100.25 274.1L1098.79 284.2L1090.8 283.5C1086.41 283.1 1082.47 282.6 1082.14 282.4C1081.69 282.2 1081.01 277.5 1080.56 272C1079.66 260.5 1077.75 257.6 1077.75 267.6C1077.75 277.4 1075.61 286.6 1071.56 294.5C1068.08 301.3 1067.96 302.4 1066.95 319.5C1066.39 329.4 1066.05 341.9 1066.16 347.2C1066.39 356.3 1066.27 357 1064.25 357C1063.01 357 1061.1 356 1059.86 354.9C1058.4 353.5 1056.82 352.9 1055.36 353.3C1053.79 353.6 1053 353.3 1053 352.4C1053 350.7 1049.51 349 1045.8 349C1043.44 349 1042.88 348.5 1042.88 346.6C1042.88 345.2 1042.31 343.8 1041.64 343.4C1040.06 342.6 1038.38 344.8 1038.38 347.7C1038.38 349.4 1037.7 350 1035.9 350C1034.21 350 1032.41 351.2 1030.72 353.5C1029.37 355.4 1027.57 357 1026.67 357C1025.66 357 1024.99 359.4 1024.42 365.6C1023.64 375.6 1022.06 379.4 1020.82 374.4C1020.15 371.4 1019.7 371.2 1014.07 370.5C1010.81 370.2 1006.88 369 1005.19 367.8C1002.15 365.7 1002.04 365.7 990.562 368.1C987.525 368.7 982.8 369.3 980.212 369.3C976.05 369.4 975.375 369.8 974.812 372.1C974.138 374.6 973.8 374.7 963.787 375.4C955.575 375.9 953.1 376.4 951.75 377.9C950.85 378.9 948.825 380.3 947.362 381C945.45 381.9 945.112 382.5 946.012 383.3C947.812 384.9 947.587 390 945.787 390C945 390 943.312 389.3 942.075 388.5C940.95 387.7 938.25 387 936.337 387C933.412 387 932.512 386.5 932.062 384.7C931.275 381.6 928.125 364.7 928.125 363.6C928.125 360.8 926.775 364.7 925.2 372C924.3 376.7 923.062 380.9 922.725 381.5C922.275 382 921.938 382.9 921.938 383.5C921.6 386.2 919.688 387.9 916.312 388.4C914.175 388.8 911.925 389.8 911.362 390.8C910.462 392 910.125 389.8 910.125 383V373.5L906.075 371.7C903.937 370.8 901.125 370 899.887 370C898.65 370 897.975 369.6 898.312 369C898.762 368.4 896.962 368 893.925 368H888.75V361.5V355H883.237C880.2 355 876.487 354.6 875.025 354.1C872.775 353.3 862.537 354.4 860.737 355.6C860.512 355.8 860.062 358.5 859.612 361.7L858.938 367.5L854.212 367.8L849.375 368.1V344.2C849.375 331.1 849.037 317.6 848.7 314.3L847.912 308.2L832.387 307.5C817.425 306.8 816.75 306.7 816.637 304.7V302.5L815.4 304.6C814.612 306.2 812.475 307.1 807.637 307.9L801 309.1V324.9V340.8L797.175 341.4C794.137 341.9 792.9 342.9 790.987 346.3C789.187 349.6 787.725 350.7 784.462 351.5L780.188 352.6L779.4 365C778.95 371.9 778.275 378.1 777.938 378.8C777.263 380.5 767.587 380 753.862 377.6C743.287 375.7 741.375 374.8 742.162 372C742.5 370.9 742.05 369 741.037 367.7C739.8 365.9 739.575 364.3 740.25 360.9C740.812 358.4 740.812 356.1 740.25 355.6C738.788 354.3 738.337 356.2 737.55 365.3C736.762 374.1 735.525 377 732.375 377C730.35 377 730.125 376.1 729.9 364.8L729.562 352.6L726.188 351.8C724.388 351.3 719.1 350.8 714.712 350.8L706.5 350.6V345.9C706.5 341.4 706.275 341.1 703.462 340.8C700.425 340.5 700.312 340.2 699.75 333.5L699.075 326.5L698.625 333.5C698.062 340.2 697.95 340.5 695.137 340.8L692.212 341.1L691.537 356.2C691.087 364.5 690.75 374.6 690.75 378.6C690.75 384.2 690.413 385.9 688.95 386.4C687.938 386.7 686.7 386.8 686.138 386.4C685.575 386.1 685.125 372.5 685.125 355.1V324.3L680.625 323.6C676.125 323 676.125 323 676.013 318.2C675.788 309 675.45 308.6 665.438 307.5C657.338 306.6 656.438 306.3 655.763 304L654.975 301.5L654.862 304.2L654.75 307H645.862C632.812 307 632.925 306.7 631.237 331.8C630.675 339.7 629.887 346.4 629.55 346.7C629.212 347.1 628.875 339.7 628.875 330.3V313.2L625.388 312.6C623.475 312.3 620.662 312 619.312 312C617.963 312 616.162 311.3 615.375 310.5C614.25 309.4 611.325 309 602.888 309C596.7 309 590.85 309.4 589.725 310C588.712 310.5 585.337 311.3 582.188 311.8C577.125 312.5 576.562 312.8 576.225 315.3C576 316.8 575.212 318 574.537 318C570.15 318.1 569.813 319.5 569.138 338.7L568.575 357.5L568.35 335.9L568.125 314.2L564.862 313.1C561.262 311.7 522.787 311.9 521.212 313.3C520.425 314.1 519.075 337.2 518.737 356.2C518.625 362.8 518.513 363 515.7 363C514.125 363 511.312 362.1 509.512 360.9C507.712 359.8 505.462 359 504.675 359.3C502.987 359.9 501.75 356.1 501.75 350.4C501.75 347.6 501.3 347 499.275 347C494.325 346.9 488.925 343.7 488.137 340.5L487.35 337.5L487.125 340.5C487.013 343 486.787 343.2 486.112 341.6C485.325 339.7 485.212 339.7 484.65 341.8C483.975 343.9 483.3 344 474.188 344C465.525 344 464.4 343.8 463.837 342.1C463.275 340.3 462.487 340.1 448.65 338.3L444.375 337.8V312.5V287.2L440.212 286.6C437.85 286.2 434.362 285.9 432.45 285.9C429.412 286 427.5 284.7 419.85 277.5C414.9 272.8 410.512 268 410.287 266.8C409.837 264.7 409.837 264.7 409.612 266.6C409.612 267.8 408.262 269.2 406.688 269.8C404.1 270.9 403.875 271.4 403.875 278.2C403.875 284.4 403.537 285.7 401.625 286.8C399.487 287.9 399.375 289.1 399.375 303.4V318.7L387.45 318.6C376.537 318.5 375.412 318.7 373.612 320.7C372.487 321.8 370.35 323 368.887 323.2C366.525 323.5 366.075 324.1 365.625 328.5L365.062 333.5H358.425C352.237 333.6 351.45 333.9 348.188 337.3C346.275 339.3 343.35 341.4 341.663 341.9C338.85 342.9 338.625 343.3 338.625 349.4C338.625 356.4 337.95 356.9 330.188 357C322.312 357.1 321.75 357.6 321.75 365.2C321.75 371.5 321.637 372 319.95 370.6C319.05 369.7 317.7 369 317.137 369C316.575 369 316.125 358.7 316.125 344C316.125 325.6 315.787 319 314.775 319C314.1 319 312.75 318.3 311.737 317.4C310.725 316.5 306.45 314.1 302.062 312.1L294.188 308.4L293.85 277.7L293.625 247L291.038 246.5C289.688 246.2 286.537 245.6 284.062 245.2L279.562 244.4V230.5C279.562 222.8 280.012 210.4 280.462 203C281.025 194.7 280.912 190 280.237 190.9C278.325 193.4 276.413 188.3 277.312 183.1C278.775 175.2 278.1 163.6 276.188 162.4C274.95 161.6 274.95 161 275.85 160.2C276.75 159.4 276.412 158.8 274.387 158.2C269.55 156.5 267.188 156.2 265.5 156.7ZM266.625 162.4C266.625 163.5 264.487 163.9 263.812 163C263.475 162.5 263.925 162 264.825 162C265.837 162 266.625 162.2 266.625 162.4ZM268.65 172.7C270.225 173.9 270.225 174 268.538 174C266.288 174 265.95 175.6 268.087 176.3C268.762 176.6 267.525 176.9 265.275 176.9C261.562 177 261 176.7 261 174.7C261 173.5 261.45 172 261.9 171.4C263.137 169.8 265.95 169.1 266.512 170.4C266.737 171 267.637 172.1 268.65 172.7ZM266.625 180.1C266.625 181.2 263.587 181.3 262.8 180.1C262.462 179.7 262.462 179 262.8 178.7C263.7 177.9 266.625 179 266.625 180.1ZM265.05 185.5C264.937 188.7 261.787 188.4 261.562 185.2C261.45 183.7 262.012 183 263.362 183C264.712 183 265.162 183.7 265.05 185.5ZM1293.53 209.3C1293.86 210.6 1293.07 211 1290.49 211C1286.21 211 1284.97 209.3 1288.35 208.1C1291.61 206.9 1293.08 207.2 1293.53 209.3ZM1298.03 211.7C1297.46 214.2 1294.88 214.5 1294.88 212.1C1294.88 210.9 1295.55 210 1296.67 210C1297.69 210 1298.25 210.7 1298.03 211.7ZM1297.8 217C1298.7 217 1299.04 217.6 1298.7 218.5C1297.69 220.6 1295.66 220.4 1293.86 217.9C1292.62 216 1292.62 215.8 1294.31 216.4C1295.32 216.7 1296.9 217 1297.8 217ZM1297.69 226C1297.12 226.8 1296.45 226.8 1295.78 226.2C1295.1 225.6 1294.99 224.6 1295.44 224C1296 223.2 1296.67 223.2 1297.35 223.8C1298.02 224.4 1298.14 225.4 1297.69 226ZM1290.71 233.5C1290.38 234.3 1289.7 235 1289.14 235C1288.01 235 1287.79 232.6 1288.8 231.7C1290.04 230.6 1291.5 232 1290.71 233.5ZM1395.45 263.2C1403.1 263.6 1403.32 265.6 1395.9 266.7C1390.39 267.5 1389.94 267.7 1389.6 270.5C1388.81 277.9 1388.81 278 1381.72 278C1371.26 278 1371.49 277.5 1371.15 300.2C1370.93 312.6 1370.36 320.3 1369.57 321C1368.9 321.6 1361.7 322.7 1353.49 323.5C1345.39 324.3 1336.84 325.2 1334.47 325.5C1326.71 326.5 1326.94 327.4 1326.94 294.5C1326.94 269.3 1327.16 264.8 1328.62 264C1329.52 263.4 1342.57 263 1358.1 263C1376.21 263 1386.11 262.6 1386.56 262C1387.12 261.3 1387.8 261.2 1388.7 261.9C1389.37 262.4 1392.52 263 1395.45 263.2ZM159.412 347.2C159.075 348 158.738 347.7 158.738 346.6C158.625 345.5 158.963 344.9 159.3 345.3C159.638 345.6 159.75 346.5 159.412 347.2ZM83.25 352.6C83.25 353.8 82.4625 354.1 80.4375 353.8C78.525 353.4 77.625 353.7 77.625 354.7C77.625 356.3 75.2625 356.1 75.15 354.5C75.0375 353.4 79.65 351 81.9 351C82.575 351 83.25 351.7 83.25 352.6ZM82.35 357.2C81.5625 357.9 81 358 81 357.4C81 356 82.35 354.8 83.1375 355.5C83.3625 355.8 83.025 356.6 82.35 357.2ZM87.4125 357.2C87.075 358 86.7375 357.7 86.7375 356.6C86.625 355.5 86.9625 354.9 87.3 355.3C87.6375 355.6 87.75 356.5 87.4125 357.2ZM78.4125 357.6C78.075 357.9 77.0625 358 76.275 357.7C75.375 357.4 75.7125 357.1 76.95 357.1C78.1875 357 78.8625 357.3 78.4125 357.6ZM857.362 383.2C856.462 386.2 856.35 385.9 856.237 379.9C856.125 376.3 856.462 373 857.025 372.6C858.262 371.4 858.6 379.4 857.362 383.2ZM1140.75 373C1138.5 374.3 1135.91 374.3 1136.81 373C1137.15 372.4 1138.61 372 1139.96 372C1141.99 372 1142.1 372.2 1140.75 373Z" fill="url(#paint1_linear_2_9368)"/>
<path d="M255.488 160.6C255.488 161.7 255.825 162 256.163 161.2C256.5 160.5 256.388 159.6 256.05 159.3C255.713 158.9 255.375 159.5 255.488 160.6Z" fill="url(#paint2_linear_2_9368)"/>
<path d="M253.462 168.5C253.462 170.7 253.687 171.5 253.913 170.2C254.138 169 254.138 167.2 253.913 166.2C253.575 165.3 253.35 166.3 253.462 168.5Z" fill="url(#paint3_linear_2_9368)"/>
<path d="M486.675 293.7C485.55 299.9 485.887 319 487.125 319C487.8 319 488.25 313.5 488.25 304.5C488.25 296.5 488.025 290 487.8 290C487.575 290 487.125 291.7 486.675 293.7Z" fill="url(#paint4_linear_2_9368)"/>
<path d="M89.55 330.9C89.1 331.6 88.9875 332.4 89.325 332.7C90.3375 333.6 91.4625 332.3 90.9 330.9C90.45 329.8 90.225 329.8 89.55 330.9Z" fill="url(#paint5_linear_2_9368)"/>
<path d="M55.575 340.5C53.55 341.8 53.55 341.9 56.025 341.3C57.375 341 58.8375 340.4 59.175 339.9C60.075 338.5 58.05 338.8 55.575 340.5Z" fill="url(#paint6_linear_2_9368)"/>
<path d="M60.1875 344C59.85 344.5 60.075 345 60.6375 345C61.3125 345 61.875 344.5 61.875 344C61.875 343.4 61.65 343 61.425 343C61.0875 343 60.525 343.4 60.1875 344Z" fill="url(#paint7_linear_2_9368)"/>
<path d="M511.2 354.9C511.537 356.7 511.875 358.6 511.875 359.1C511.875 359.6 512.437 360 513 360C514.237 360 513.337 355.5 511.65 353C510.975 352 510.75 352.6 511.2 354.9Z" fill="url(#paint8_linear_2_9368)"/>
<defs>
<linearGradient id="paint0_linear_2_9368" x1="872.798" y1="2" x2="872.798" y2="0" gradientUnits="userSpaceOnUse">
<stop stop-color="#D4DAF7"/>
<stop offset="0.375" stop-color="#D4DAF7" stop-opacity="0.84375"/>
<stop offset="1" stop-color="#E9EDFB" stop-opacity="0"/>
</linearGradient>
<linearGradient id="paint1_linear_2_9368" x1="720" y1="753" x2="720" y2="156.481" gradientUnits="userSpaceOnUse">
<stop stop-color="#D4DAF7"/>
<stop offset="0.375" stop-color="#D4DAF7" stop-opacity="0.84375"/>
<stop offset="1" stop-color="#E9EDFB" stop-opacity="0"/>
</linearGradient>
<linearGradient id="paint2_linear_2_9368" x1="255.916" y1="161.652" x2="255.916" y2="159.176" gradientUnits="userSpaceOnUse">
<stop stop-color="#D4DAF7"/>
<stop offset="0.375" stop-color="#D4DAF7" stop-opacity="0.84375"/>
<stop offset="1" stop-color="#E9EDFB" stop-opacity="0"/>
</linearGradient>
<linearGradient id="paint3_linear_2_9368" x1="253.757" y1="170.826" x2="253.757" y2="165.87" gradientUnits="userSpaceOnUse">
<stop stop-color="#D4DAF7"/>
<stop offset="0.375" stop-color="#D4DAF7" stop-opacity="0.84375"/>
<stop offset="1" stop-color="#E9EDFB" stop-opacity="0"/>
</linearGradient>
<linearGradient id="paint4_linear_2_9368" x1="487.12" y1="319" x2="487.12" y2="290" gradientUnits="userSpaceOnUse">
<stop stop-color="#D4DAF7"/>
<stop offset="0.375" stop-color="#D4DAF7" stop-opacity="0.84375"/>
<stop offset="1" stop-color="#E9EDFB" stop-opacity="0"/>
</linearGradient>
<linearGradient id="paint5_linear_2_9368" x1="90.0896" y1="332.997" x2="90.0896" y2="330.075" gradientUnits="userSpaceOnUse">
<stop stop-color="#D4DAF7"/>
<stop offset="0.375" stop-color="#D4DAF7" stop-opacity="0.84375"/>
<stop offset="1" stop-color="#E9EDFB" stop-opacity="0"/>
</linearGradient>
<linearGradient id="paint6_linear_2_9368" x1="56.7505" y1="341.653" x2="56.7505" y2="339.013" gradientUnits="userSpaceOnUse">
<stop stop-color="#D4DAF7"/>
<stop offset="0.375" stop-color="#D4DAF7" stop-opacity="0.84375"/>
<stop offset="1" stop-color="#E9EDFB" stop-opacity="0"/>
</linearGradient>
<linearGradient id="paint7_linear_2_9368" x1="60.952" y1="345" x2="60.952" y2="343" gradientUnits="userSpaceOnUse">
<stop stop-color="#D4DAF7"/>
<stop offset="0.375" stop-color="#D4DAF7" stop-opacity="0.84375"/>
<stop offset="1" stop-color="#E9EDFB" stop-opacity="0"/>
</linearGradient>
<linearGradient id="paint8_linear_2_9368" x1="512.271" y1="360" x2="512.271" y2="352.534" gradientUnits="userSpaceOnUse">
<stop stop-color="#D4DAF7"/>
<stop offset="0.375" stop-color="#D4DAF7" stop-opacity="0.84375"/>
<stop offset="1" stop-color="#E9EDFB" stop-opacity="0"/>
</linearGradient>
</defs>
</svg>
